<svg viewBox="0 0 1200 900" fill="none" xmlns="http://www.w3.org/2000/svg"><path fill="#fff" d="M0 0h1200v900H0z"></path><path d="M596.867 23.327a58.354 58.354 0 00-22.301 5.67L270.263 175.106c-15.954 7.656-27.543 22.137-31.485 39.342l-75.073 328.196a57.83 57.83 0 007.9 44.466 57.672 57.672 0 003.308 4.615L385.54 854.884c11.044 13.794 27.789 21.826 45.495 21.822l337.773-.078c17.7.013 34.444-8.004 45.496-21.783l210.546-263.198a57.858 57.858 0 0011.25-49.081L960.91 214.37c-3.942-17.206-15.531-31.686-31.485-39.343L625.083 28.997a58.361 58.361 0 00-28.216-5.67z" fill="#326CE5" stroke="#fff" stroke-width=".5" opacity=".1"></path><path fill-rule="evenodd" clip-rule="evenodd" d="M371 552h220v228H371V552z" fill="#53777A"></path><path d="M405.827 650.766c-.567-4.704-4.126-7.408-8.839-7.408-5.38 0-9.486 3.798-9.486 10.46 0 6.642 4.037 10.46 9.486 10.46 5.22 0 8.372-3.47 8.839-7.218l-4.355-.02c-.408 2.177-2.118 3.43-4.415 3.43-3.092 0-5.19-2.297-5.19-6.652 0-4.236 2.068-6.652 5.22-6.652 2.357 0 4.057 1.362 4.385 3.6h4.355zm21.8 3.052c0-6.662-4.136-10.46-9.535-10.46-5.429 0-9.536 3.798-9.536 10.46 0 6.632 4.107 10.46 9.536 10.46 5.399 0 9.535-3.798 9.535-10.46zm-4.365 0c0 4.316-2.048 6.652-5.17 6.652-3.132 0-5.17-2.336-5.17-6.652 0-4.315 2.038-6.652 5.17-6.652 3.122 0 5.17 2.337 5.17 6.652zm24.587-10.182h-4.285v12.807h-.179l-8.79-12.807h-3.778V664h4.305v-12.817h.149l8.86 12.817h3.718v-20.364zm2.782 3.55h6.234V664h4.256v-16.814h6.234v-3.55h-16.724v3.55zM470.11 664h4.305v-7.219h3.142l3.858 7.219h4.753l-4.325-7.915c2.316-.994 3.599-3.013 3.599-5.797 0-4.047-2.675-6.652-7.298-6.652h-8.034V664zm4.305-10.679v-6.165h2.904c2.485 0 3.688 1.104 3.688 3.132 0 2.019-1.203 3.033-3.669 3.033h-2.923zm32.783.497c0-6.662-4.137-10.46-9.536-10.46-5.429 0-9.535 3.798-9.535 10.46 0 6.632 4.106 10.46 9.535 10.46 5.399 0 9.536-3.798 9.536-10.46zm-4.365 0c0 4.316-2.049 6.652-5.171 6.652-3.132 0-5.17-2.336-5.17-6.652 0-4.315 2.038-6.652 5.17-6.652 3.122 0 5.171 2.337 5.171 6.652zM510.387 664h13.036v-3.55h-8.731v-16.814h-4.305V664zm15.887 0h13.035v-3.55h-8.73v-16.814h-4.305V664zm15.887 0h13.761v-3.55h-9.456v-4.862h8.71v-3.55h-8.71v-4.852h9.416v-3.55h-13.721V664zm17.144 0h4.305v-7.219h3.142L570.61 664h4.753l-4.325-7.915c2.317-.994 3.599-3.013 3.599-5.797 0-4.047-2.674-6.652-7.298-6.652h-8.034V664zm4.305-10.679v-6.165h2.904c2.486 0 3.689 1.104 3.689 3.132 0 2.019-1.203 3.033-3.669 3.033h-2.924zm-152.823 24.315V698h4.177v-13.304h.169l5.27 13.205h2.843l5.27-13.155h.169V698h4.176v-20.364h-5.309l-5.608 13.682h-.239l-5.608-13.682h-5.31zM439.919 698l1.511-4.643h7.348l1.511 4.643h4.614l-7.02-20.364h-5.548L435.305 698h4.614zm2.605-8.004l2.505-7.706h.159l2.506 7.706h-5.17zm31.863-12.36h-4.286v12.807h-.179l-8.79-12.807h-3.778V698h4.305v-12.817h.149l8.86 12.817h3.719v-20.364zM481.454 698l1.511-4.643h7.348l1.511 4.643h4.614l-7.02-20.364h-5.548L476.84 698h4.614zm2.605-8.004l2.505-7.706h.16l2.505 7.706h-5.17zm27.376-5.777h4.375c-.557-4.027-4.107-6.861-8.71-6.861-5.38 0-9.526 3.878-9.526 10.48 0 6.443 3.878 10.44 9.615 10.44 5.141 0 8.81-3.251 8.81-8.61v-2.566h-8.522v3.242h4.375c-.059 2.525-1.779 4.126-4.643 4.126-3.232 0-5.27-2.416-5.27-6.672 0-4.236 2.118-6.632 5.23-6.632 2.218 0 3.719 1.144 4.266 3.053zM519.233 698h13.761v-3.55h-9.456v-4.862h8.71v-3.55h-8.71v-4.852h9.416v-3.55h-13.721V698zm17.144 0h4.306v-7.219h3.142l3.858 7.219h4.753l-4.326-7.915c2.317-.994 3.6-3.013 3.6-5.797 0-4.047-2.675-6.652-7.299-6.652h-8.034V698zm4.306-10.679v-6.165h2.903c2.486 0 3.689 1.104 3.689 3.132 0 2.019-1.203 3.033-3.669 3.033h-2.923z" fill="#fff"></path><path fill-rule="evenodd" clip-rule="evenodd" d="M614 552h220v228H614V552z" fill="#53777A"></path><path d="M651.996 665.493h4.127c-.06-3.629-3.043-6.135-7.577-6.135-4.464 0-7.736 2.466-7.716 6.165-.01 3.003 2.108 4.723 5.549 5.548l2.217.557c2.217.537 3.45 1.173 3.46 2.545-.01 1.492-1.422 2.506-3.609 2.506-2.237 0-3.848-1.034-3.987-3.072h-4.167c.11 4.404 3.262 6.681 8.203 6.681 4.972 0 7.895-2.376 7.905-6.105-.01-3.39-2.565-5.19-6.105-5.986l-1.829-.437c-1.77-.408-3.252-1.064-3.222-2.526 0-1.312 1.163-2.277 3.271-2.277 2.059 0 3.321.935 3.48 2.536zm25.269 1.273c-.567-4.704-4.127-7.408-8.84-7.408-5.379 0-9.486 3.798-9.486 10.46 0 6.642 4.037 10.46 9.486 10.46 5.22 0 8.372-3.47 8.84-7.218l-4.356-.02c-.407 2.177-2.117 3.43-4.414 3.43-3.093 0-5.191-2.297-5.191-6.652 0-4.236 2.069-6.652 5.221-6.652 2.356 0 4.056 1.362 4.384 3.6h4.356zM680.352 680h4.305v-8.412h8.74V680h4.296v-20.364h-4.296v8.402h-8.74v-8.402h-4.305V680zm20.891 0h13.761v-3.55h-9.456v-4.862h8.71v-3.55h-8.71v-4.852h9.416v-3.55h-13.721V680zm24.363 0c6.204 0 9.963-3.838 9.963-10.202 0-6.343-3.759-10.162-9.904-10.162h-7.278V680h7.219zm-2.914-3.689v-12.986h2.745c3.818 0 5.836 1.949 5.836 6.473 0 4.544-2.018 6.513-5.846 6.513h-2.735zm28.644-16.675v12.857c0 2.327-1.63 4.007-4.136 4.007-2.496 0-4.136-1.68-4.136-4.007v-12.857h-4.306v13.225c0 4.454 3.361 7.427 8.442 7.427 5.061 0 8.442-2.973 8.442-7.427v-13.225h-4.306zM759.184 680h13.035v-3.55h-8.73v-16.814h-4.305V680zm15.887 0h13.761v-3.55h-9.456v-4.862h8.71v-3.55h-8.71v-4.852h9.416v-3.55h-13.721V680zm17.144 0h4.306v-7.219h3.142l3.858 7.219h4.752l-4.325-7.915c2.317-.994 3.6-3.013 3.6-5.797 0-4.047-2.675-6.652-7.299-6.652h-8.034V680zm4.306-10.679v-6.165h2.903c2.486 0 3.689 1.104 3.689 3.132 0 2.019-1.203 3.033-3.669 3.033h-2.923z" fill="#fff"></path><path fill-rule="evenodd" clip-rule="evenodd" d="M334 236h220v228H334V236z" fill="#53777A"></path><path d="M367.7 357l1.511-4.643h7.348L378.07 357h4.614l-7.02-20.364h-5.548L363.086 357h4.614zm2.605-8.004l2.506-7.706h.159l2.505 7.706h-5.17zm14.83 8.004h4.306v-6.602h3.619c4.683 0 7.408-2.794 7.408-6.861 0-4.047-2.675-6.901-7.299-6.901h-8.034V357zm4.306-10.053v-6.791h2.903c2.486 0 3.689 1.353 3.689 3.381 0 2.018-1.203 3.41-3.669 3.41h-2.923zm18.128-10.311h-4.305V357h4.305v-20.364zm21.07 5.857h4.126c-.059-3.629-3.042-6.135-7.576-6.135-4.465 0-7.736 2.466-7.716 6.165-.01 3.003 2.108 4.723 5.548 5.548l2.217.557c2.218.537 3.451 1.173 3.461 2.545-.01 1.492-1.422 2.506-3.61 2.506-2.237 0-3.848-1.034-3.987-3.072h-4.166c.109 4.404 3.261 6.681 8.203 6.681 4.972 0 7.895-2.376 7.905-6.105-.01-3.39-2.565-5.19-6.105-5.986l-1.83-.437c-1.77-.408-3.251-1.064-3.221-2.526 0-1.312 1.163-2.277 3.271-2.277 2.058 0 3.321.935 3.48 2.536zM435.94 357h13.761v-3.55h-9.456v-4.862h8.71v-3.55h-8.71v-4.852h9.416v-3.55H435.94V357zm17.144 0h4.306v-7.219h3.142L464.39 357h4.753l-4.326-7.915c2.317-.994 3.6-3.013 3.6-5.797 0-4.047-2.675-6.652-7.299-6.652h-8.034V357zm4.306-10.679v-6.165h2.903c2.486 0 3.689 1.104 3.689 3.132 0 2.019-1.203 3.033-3.669 3.033h-2.923zm17.174-9.685h-4.783l7.03 20.364h5.549l7.019-20.364h-4.772l-4.932 15.472h-.189l-4.922-15.472zM491.83 357h13.762v-3.55h-9.456v-4.862h8.71v-3.55h-8.71v-4.852h9.416v-3.55H491.83V357zm17.145 0h4.305v-7.219h3.142L520.28 357h4.753l-4.325-7.915c2.317-.994 3.599-3.013 3.599-5.797 0-4.047-2.674-6.652-7.298-6.652h-8.034V357zm4.305-10.679v-6.165h2.904c2.486 0 3.689 1.104 3.689 3.132 0 2.019-1.203 3.033-3.669 3.033h-2.924z" fill="#fff"></path><ellipse cx="763.5" cy="346.5" rx="102.5" ry="106.5" fill="#fff" stroke="#53777A" stroke-width="21"></ellipse><path d="M756.992 337.964c0 5.54-4.321 10.021-9.645 10.021-5.329 0-9.637-4.481-9.637-10.021 0-5.517 4.309-10.016 9.637-10.016 5.324 0 9.645 4.499 9.645 10.016zm12.46.002c0 5.54 4.32 10.021 9.645 10.021 5.324 0 9.64-4.481 9.64-10.021 0-5.519-4.316-10.018-9.64-10.018-5.325 0-9.645 4.499-9.645 10.018z" fill="#419EDA"></path><path fill-rule="evenodd" clip-rule="evenodd" d="M833.068 349.232c.742 0 1.439-.028 2.134-.089l2.087-.167-.199 2.2c-1.025 11.13-4.356 21.733-9.901 31.512l-1.075 1.901-1.623-1.428a27.414 27.414 0 00-13.196-6.397 117.99 117.99 0 01-11.251 19.039c-6.806 2.475-13.897 4.324-21.219 5.427-.705 5.052-.143 10.282 1.769 15.112l.811 2.051-2.082.475-15.953 1.837c-5.261 0-10.633-.62-15.959-1.837l-2.079-.475.808-2.047c1.918-4.83 2.48-10.054 1.775-15.105-7.351-1.103-14.468-2.956-21.299-5.438a117.861 117.861 0 01-11.239-19.021 27.298 27.298 0 00-13.132 6.391l-1.622 1.431-1.081-1.906c-5.535-9.767-8.867-20.371-9.907-31.519l-.2-2.203 2.125.168c.681.059 1.383.087 2.133.087 4.272 0 8.421-1.036 12.166-2.937a122.218 122.218 0 01-1.606-22.647 116.295 116.295 0 0113.985-17.183c-2.28-4.426-5.647-8.232-9.849-10.936l-1.808-1.163 1.414-1.656c7.147-8.375 16.058-15.125 25.767-19.521l1.953-.882.501 2.153a29.165 29.165 0 006.964 13.149 109.696 109.696 0 0120.158-8.626 109.643 109.643 0 0120.189 8.644 29.161 29.161 0 006.988-13.179l.498-2.153 1.961.886c9.832 4.46 18.504 11.033 25.77 19.534l1.411 1.653-1.81 1.162c-4.215 2.715-7.592 6.543-9.876 10.993a115.818 115.818 0 0114.01 17.251 122.192 122.192 0 01-1.647 22.492c3.764 1.919 7.936 2.967 12.236 2.967zm-69.73 30.062c7.619 0 15.284-1.076 22.832-3.209a93.295 93.295 0 009.79-21.427c2.352-7.499 3.743-15.323 4.161-23.38-4.902-6.306-10.474-11.839-16.628-16.485a87.543 87.543 0 00-20.155-11.384 87.162 87.162 0 00-20.194 11.409c-6.13 4.621-11.678 10.111-16.556 16.378.399 8.103 1.773 15.973 4.121 23.484a93.614 93.614 0 009.779 21.405c7.554 2.133 15.21 3.209 22.85 3.209z" fill="#419EDA"></path><path d="M554 349h118v3H554v-3z" fill="#9EEBCF"></path><circle cx="554.5" cy="350.5" r="6.5" fill="#fff" stroke="#9EEBCF" stroke-width="3"></circle><path d="M652 350.5l-8 5.5v-11l8 5.5z" fill="#9EEBCF"></path><path d="M554.011 416.045h84.549c5.523 0 10 4.477 10 10v125.97" stroke="#9EEBCF" stroke-width="3"></path><circle cx="554.5" cy="415.5" r="6" fill="#fff" stroke="#9EEBCF" stroke-width="3"></circle><path fill-rule="evenodd" clip-rule="evenodd" d="M648.5 555l-5.5-8h11l-5.5 8z" fill="#9EEBCF"></path><path d="M500 463v89h-3v-89h3z" fill="#9EEBCF"></path><circle cx="498.5" cy="462.5" r="6.5" fill="#fff" stroke="#9EEBCF" stroke-width="3"></circle><path d="M498.5 556l-5.5-8h11l-5.5 8z" fill="#9EEBCF"></path></svg>