<?xml version="1.0" encoding="UTF-8" standalone="no"?>
<!DOCTYPE svg PUBLIC "-//W3C//DTD SVG 1.1//EN"
 "http://www.w3.org/Graphics/SVG/1.1/DTD/svg11.dtd">
<!-- Generated by graphviz version 2.40.1 (20161225.0304)
 -->
<!-- Title: %3 Pages: 1 -->
<svg width="779pt" height="332pt"
 viewBox="0.00 0.00 778.89 332.00" xmlns="http://www.w3.org/2000/svg" xmlns:xlink="http://www.w3.org/1999/xlink">
<g id="graph0" class="graph" transform="scale(1 1) rotate(0) translate(4 328)">
<title>%3</title>
<polygon fill="#ffffff" stroke="transparent" points="-4,4 -4,-328 774.8915,-328 774.8915,4 -4,4"/>
<!-- [root] aws_instance.example -->
<g id="node1" class="node">
<title>[root] aws_instance.example</title>
<polygon fill="none" stroke="#000000" points="549.3283,-180 392.0598,-180 392.0598,-144 549.3283,-144 549.3283,-180"/>
<text text-anchor="middle" x="470.694" y="-157.8" font-family="monospace" font-size="14.00" fill="#000000">aws_instance.example</text>
</g>
<!-- [root] provider.aws -->
<g id="node2" class="node">
<title>[root] provider.aws</title>
<polygon fill="none" stroke="#000000" points="385.694,-108 301.1777,-90 385.694,-72 470.2104,-90 385.694,-108"/>
<text text-anchor="middle" x="385.694" y="-85.8" font-family="monospace" font-size="14.00" fill="#000000">provider.aws</text>
</g>
<!-- [root] aws_instance.example&#45;&gt;[root] provider.aws -->
<g id="edge1" class="edge">
<title>[root] aws_instance.example&#45;&gt;[root] provider.aws</title>
<path fill="none" stroke="#000000" d="M449.245,-143.8314C437.4646,-133.8527 422.7975,-121.4288 410.5229,-111.0315"/>
<polygon fill="#000000" stroke="#000000" points="412.7494,-108.3306 402.8567,-104.5378 408.225,-113.6719 412.7494,-108.3306"/>
</g>
<!-- [root] var.AMIS -->
<g id="node3" class="node">
<title>[root] var.AMIS</title>
<ellipse fill="none" stroke="#000000" cx="556.694" cy="-90" rx="68.6911" ry="18"/>
<text text-anchor="middle" x="556.694" y="-85.8" font-family="monospace" font-size="14.00" fill="#000000">[root] var.AMIS</text>
</g>
<!-- [root] aws_instance.example&#45;&gt;[root] var.AMIS -->
<g id="edge2" class="edge">
<title>[root] aws_instance.example&#45;&gt;[root] var.AMIS</title>
<path fill="none" stroke="#000000" d="M492.3955,-143.8314C503.2306,-134.7601 516.4794,-123.668 528.1292,-113.9148"/>
<polygon fill="#000000" stroke="#000000" points="530.4687,-116.5208 535.8896,-107.4177 525.9752,-111.1535 530.4687,-116.5208"/>
</g>
<!-- [root] var.AWS_ACCESS_KEY -->
<g id="node6" class="node">
<title>[root] var.AWS_ACCESS_KEY</title>
<ellipse fill="none" stroke="#000000" cx="130.694" cy="-18" rx="130.8884" ry="18"/>
<text text-anchor="middle" x="130.694" y="-13.8" font-family="monospace" font-size="14.00" fill="#000000">[root] var.AWS_ACCESS_KEY</text>
</g>
<!-- [root] provider.aws&#45;&gt;[root] var.AWS_ACCESS_KEY -->
<g id="edge5" class="edge">
<title>[root] provider.aws&#45;&gt;[root] var.AWS_ACCESS_KEY</title>
<path fill="none" stroke="#000000" d="M349.1588,-79.6842C309.8631,-68.5889 246.5135,-50.702 198.1259,-37.0396"/>
<polygon fill="#000000" stroke="#000000" points="198.9257,-33.6286 188.3509,-34.2796 197.0236,-40.3653 198.9257,-33.6286"/>
</g>
<!-- [root] var.AWS_REGION -->
<g id="node7" class="node">
<title>[root] var.AWS_REGION</title>
<ellipse fill="none" stroke="#000000" cx="385.694" cy="-18" rx="106.6982" ry="18"/>
<text text-anchor="middle" x="385.694" y="-13.8" font-family="monospace" font-size="14.00" fill="#000000">[root] var.AWS_REGION</text>
</g>
<!-- [root] provider.aws&#45;&gt;[root] var.AWS_REGION -->
<g id="edge6" class="edge">
<title>[root] provider.aws&#45;&gt;[root] var.AWS_REGION</title>
<path fill="none" stroke="#000000" d="M385.694,-71.8314C385.694,-64.131 385.694,-54.9743 385.694,-46.4166"/>
<polygon fill="#000000" stroke="#000000" points="389.1941,-46.4132 385.694,-36.4133 382.1941,-46.4133 389.1941,-46.4132"/>
</g>
<!-- [root] var.AWS_SECRET_KEY -->
<g id="node8" class="node">
<title>[root] var.AWS_SECRET_KEY</title>
<ellipse fill="none" stroke="#000000" cx="640.694" cy="-18" rx="130.3952" ry="18"/>
<text text-anchor="middle" x="640.694" y="-13.8" font-family="monospace" font-size="14.00" fill="#000000">[root] var.AWS_SECRET_KEY</text>
</g>
<!-- [root] provider.aws&#45;&gt;[root] var.AWS_SECRET_KEY -->
<g id="edge7" class="edge">
<title>[root] provider.aws&#45;&gt;[root] var.AWS_SECRET_KEY</title>
<path fill="none" stroke="#000000" d="M422.2293,-79.6842C461.525,-68.5889 524.8746,-50.702 573.2622,-37.0396"/>
<polygon fill="#000000" stroke="#000000" points="574.3645,-40.3653 583.0372,-34.2796 572.4624,-33.6286 574.3645,-40.3653"/>
</g>
<!-- [root] meta.count&#45;boundary (count boundary fixup) -->
<g id="node4" class="node">
<title>[root] meta.count&#45;boundary (count boundary fixup)</title>
<ellipse fill="none" stroke="#000000" cx="302.694" cy="-234" rx="206.9804" ry="18"/>
<text text-anchor="middle" x="302.694" y="-229.8" font-family="monospace" font-size="14.00" fill="#000000">[root] meta.count&#45;boundary (count boundary fixup)</text>
</g>
<!-- [root] meta.count&#45;boundary (count boundary fixup)&#45;&gt;[root] aws_instance.example -->
<g id="edge3" class="edge">
<title>[root] meta.count&#45;boundary (count boundary fixup)&#45;&gt;[root] aws_instance.example</title>
<path fill="none" stroke="#000000" d="M344.2221,-216.2022C366.8682,-206.4968 395.1031,-194.3961 419.1465,-184.0918"/>
<polygon fill="#000000" stroke="#000000" points="420.664,-187.2494 428.4768,-180.0931 417.9066,-180.8154 420.664,-187.2494"/>
</g>
<!-- [root] provider.aws (close) -->
<g id="node5" class="node">
<title>[root] provider.aws (close)</title>
<ellipse fill="none" stroke="#000000" cx="638.694" cy="-234" rx="111.2154" ry="18"/>
<text text-anchor="middle" x="638.694" y="-229.8" font-family="monospace" font-size="14.00" fill="#000000">[root] provider.aws (close)</text>
</g>
<!-- [root] provider.aws (close)&#45;&gt;[root] aws_instance.example -->
<g id="edge4" class="edge">
<title>[root] provider.aws (close)&#45;&gt;[root] aws_instance.example</title>
<path fill="none" stroke="#000000" d="M599.3055,-217.1192C576.2582,-207.2418 546.8989,-194.6592 522.0519,-184.0105"/>
<polygon fill="#000000" stroke="#000000" points="523.3427,-180.7559 512.7725,-180.0336 520.5853,-187.1899 523.3427,-180.7559"/>
</g>
<!-- [root] root -->
<g id="node9" class="node">
<title>[root] root</title>
<ellipse fill="none" stroke="#000000" cx="470.694" cy="-306" rx="47.91" ry="18"/>
<text text-anchor="middle" x="470.694" y="-301.8" font-family="monospace" font-size="14.00" fill="#000000">[root] root</text>
</g>
<!-- [root] root&#45;&gt;[root] meta.count&#45;boundary (count boundary fixup) -->
<g id="edge8" class="edge">
<title>[root] root&#45;&gt;[root] meta.count&#45;boundary (count boundary fixup)</title>
<path fill="none" stroke="#000000" d="M439.0945,-292.4574C414.9274,-282.1 381.1253,-267.6134 353.2176,-255.6529"/>
<polygon fill="#000000" stroke="#000000" points="354.5718,-252.4255 344.0016,-251.7032 351.8143,-258.8595 354.5718,-252.4255"/>
</g>
<!-- [root] root&#45;&gt;[root] provider.aws (close) -->
<g id="edge9" class="edge">
<title>[root] root&#45;&gt;[root] provider.aws (close)</title>
<path fill="none" stroke="#000000" d="M502.2936,-292.4574C526.9731,-281.8804 561.7004,-266.9973 589.9375,-254.8957"/>
<polygon fill="#000000" stroke="#000000" points="591.4281,-258.0648 599.2408,-250.9085 588.6706,-251.6308 591.4281,-258.0648"/>
</g>
</g>
</svg>
